<?xml version="1.0" encoding="UTF-8"?>
<svg version="1.1" xmlns="http://www.w3.org/2000/svg" width="500" height="500">
<path d="M0 0 C2.9140625 1.42578125 2.9140625 1.42578125 5.625 3.3125 C6.52476562 3.92738281 7.42453125 4.54226562 8.3515625 5.17578125 C9.22554688 5.77777344 10.09953125 6.37976563 11 7 C12.37285156 7.79470703 12.37285156 7.79470703 13.7734375 8.60546875 C16 10 16 10 17 12 C17.35696037 17.91865663 17.44186784 23.83738845 17.51489258 29.765625 C17.54652181 31.74837205 17.59426546 33.73093024 17.65844727 35.71289062 C17.74985529 38.57494026 17.78852765 41.43358475 17.81640625 44.296875 C17.85455948 45.17833191 17.89271271 46.05978882 17.93202209 46.96795654 C17.92019338 50.72817132 17.87936964 53.04967682 15.25733948 55.88327026 C11.6914257 58.59879466 7.89077895 60.76606355 3.8125 62.625 C-2.08371412 65.45727523 -7.71593905 68.65918909 -13.375 71.9375 C-20.47430815 76.04273024 -27.60282332 79.88602442 -34.9765625 83.4765625 C-39.47120093 85.74130279 -43.73043568 88.34202436 -48 91 C-49.66521834 92.00240992 -51.33152494 93.00302018 -53 94 C-51.61518672 94.87191947 -50.21654754 95.72190384 -48.8125 96.5625 C-47.64654297 97.27599609 -47.64654297 97.27599609 -46.45703125 98.00390625 C-43.38149449 99.25074548 -42.13851135 99.01470668 -39 98 C-30.91532822 94.49037504 -23.33660534 90.09031112 -15.83642578 85.48950195 C-9.03498867 81.34616853 -1.99206556 77.68448787 5.08203125 74.03271484 C7.0378874 72.97959984 8.91762303 71.83425818 10.8125 70.67578125 C11.864375 70.12277344 12.91625 69.56976563 14 69 C15.485 69.495 15.485 69.495 17 70 C17.23292281 73.72810868 17.37459124 77.45434992 17.5 81.1875 C17.60054687 82.77014648 17.60054687 82.77014648 17.703125 84.38476562 C17.89625968 92.03772725 17.89625968 92.03772725 15.38574219 94.7331543 C13.31072678 96.03434752 11.24797695 97.03306977 9 98 C8.01515625 98.59683594 7.0303125 99.19367188 6.015625 99.80859375 C0.17074319 103.25113007 -5.7356198 106.40720767 -11.83203125 109.37890625 C-16.11137386 111.56870549 -20.24920871 113.98446116 -24.36865234 116.46069336 C-27.1520244 118.10053738 -28.7065434 119 -32 119 C-32 119.66 -32 120.32 -32 121 C-32.92619141 121.45439453 -32.92619141 121.45439453 -33.87109375 121.91796875 C-34.71800781 122.33691406 -35.56492187 122.75585938 -36.4375 123.1875 C-37.34757812 123.63738281 -38.25765625 124.08726562 -39.1953125 124.55078125 C-42.52742546 126.27252764 -45.71708658 128.18856832 -48.89453125 130.1796875 C-51.7564504 131.29472094 -53.07291483 130.92903138 -56 130 C-58.48222825 128.86128803 -60.89378543 127.69543085 -63.3125 126.4375 C-63.95767578 126.10814453 -64.60285156 125.77878906 -65.26757812 125.43945312 C-66.84785228 124.63175745 -68.42432105 123.81662387 -70 123 C-70 122.34 -70 121.68 -70 121 C-70.639375 120.855625 -71.27875 120.71125 -71.9375 120.5625 C-74 120 -74 120 -75 119 C-75.13830866 116.23516222 -75.21315882 113.49710444 -75.23828125 110.73046875 C-75.25038887 109.48164665 -75.25038887 109.48164665 -75.26274109 108.20759583 C-75.27659853 106.44139702 -75.28731323 104.67517125 -75.29516602 102.90893555 C-75.31236335 100.20895444 -75.35623104 97.51020255 -75.40039062 94.81054688 C-75.41051855 93.09636319 -75.41903434 91.38216907 -75.42578125 89.66796875 C-75.44328934 88.86054733 -75.46079742 88.05312592 -75.47883606 87.22123718 C-75.4648066 83.58982924 -75.36394745 81.47420309 -73.11743164 78.54711914 C-70.85383928 76.89320645 -68.61656841 75.53743656 -66.125 74.25 C-60.54915801 71.30946918 -55.10069141 68.19528906 -49.65234375 65.02734375 C-46.91142062 63.47045627 -44.12076184 62.05268975 -41.29296875 60.66015625 C-35.53662439 57.8094626 -29.95777701 54.67437584 -24.375 51.5 C-23.39015625 50.94441406 -22.4053125 50.38882813 -21.390625 49.81640625 C-19.47207662 48.72922883 -17.55873978 47.63279031 -15.65136719 46.52612305 C-13.96537387 45.55566778 -12.26398417 44.61114074 -10.54394531 43.70239258 C-6.11465037 41.31719948 -6.11465037 41.31719948 -4 36.88671875 C-4 35.83097656 -4 34.77523437 -4 33.6875 C-3.979375 32.61886719 -3.95875 31.55023438 -3.9375 30.44921875 C-3.958125 29.64097656 -3.97875 28.83273438 -4 28 C-5.02738281 28.58007812 -6.05476563 29.16015625 -7.11328125 29.7578125 C-14.13922185 33.72037835 -21.16448628 37.68161171 -28.26171875 41.515625 C-30.33354608 42.63872683 -32.39727293 43.77678902 -34.45703125 44.921875 C-35.63796736 45.57301367 -36.81895616 46.22405677 -38 46.875 C-39.0725 47.47054687 -40.145 48.06609375 -41.25 48.6796875 C-44 50 -44 50 -47 50 C-47 50.66 -47 51.32 -47 52 C-47.53625 52.25652344 -48.0725 52.51304687 -48.625 52.77734375 C-52.86845345 54.85021493 -57.03724724 56.99846618 -61.12109375 59.37109375 C-61.83330078 59.78302979 -62.54550781 60.19496582 -63.27929688 60.61938477 C-64.70883919 61.45107437 -66.13343745 62.29132546 -67.55273438 63.14038086 C-69.32634716 64.16987932 -71.16035779 65.09375174 -73 66 C-73.99 65.67 -74.98 65.34 -76 65 C-76.14547545 60.93787788 -76.23413226 56.87642713 -76.3125 52.8125 C-76.35439453 51.66201172 -76.39628906 50.51152344 -76.43945312 49.32617188 C-76.56310636 40.79409893 -76.56310636 40.79409893 -73.78125 36.87109375 C-71.2798918 35.188298 -68.87193371 33.61969531 -66.1875 32.25 C-61.25819224 29.67117959 -56.40121251 26.99360555 -51.5625 24.25 C-40.53697183 18 -40.53697183 18 -37 18 C-37 17.34 -37 16.68 -37 16 C-36.175 15.59910156 -35.35 15.19820312 -34.5 14.78515625 C-33.345 14.21667969 -32.19 13.64820313 -31 13.0625 C-30.37859131 12.75691162 -29.75718262 12.45132324 -29.11694336 12.13647461 C-25.59118042 10.37731738 -22.14808231 8.53360335 -18.75390625 6.53125 C-17.70493164 5.91624634 -17.70493164 5.91624634 -16.63476562 5.28881836 C-15.28065736 4.48748874 -13.93385186 3.67365272 -12.59570312 2.84594727 C-8.26256014 0.28994843 -5.15680826 -0.70347211 0 0 Z " fill="#1E3755" transform="translate(303,131)"/>
<path d="M0 0 C4.0254394 0.81756986 6.7080286 3.10855804 9.91796875 5.578125 C12.52900634 7.51876104 15.14861344 9.04980183 18.01953125 10.57421875 C18.92316406 11.05761719 19.82679688 11.54101562 20.7578125 12.0390625 C21.66917969 12.52503906 22.58054687 13.01101562 23.51953125 13.51171875 C25.42543881 14.53483646 27.32188853 15.57582743 29.20703125 16.63671875 C30.03589844 17.09304687 30.86476563 17.549375 31.71875 18.01953125 C32.31300781 18.51195313 32.90726562 19.004375 33.51953125 19.51171875 C33.51953125 20.83171875 33.51953125 22.15171875 33.51953125 23.51171875 C30.87214209 24.97234725 29.62504791 25.51171875 26.51953125 25.51171875 C26.51953125 26.17171875 26.51953125 26.83171875 26.51953125 27.51171875 C25.92527344 27.80304688 25.33101563 28.094375 24.71875 28.39453125 C18.99936255 31.223093 13.4079853 34.20996874 7.8671875 37.375 C5.51953125 38.51171875 5.51953125 38.51171875 2.51953125 38.51171875 C2.51953125 39.17171875 2.51953125 39.83171875 2.51953125 40.51171875 C1.71773438 40.90101563 0.9159375 41.2903125 0.08984375 41.69140625 C-9.9509407 46.63210971 -19.77628355 51.93800857 -29.48046875 57.51171875 C-30.33307281 57.87000259 -31.18567688 58.22828644 -32.06411743 58.59742737 C-34.84304719 60.36829193 -34.84304719 60.36829193 -35.1197052 63.94755554 C-35.15195405 65.39397382 -35.15660588 66.8411606 -35.13989258 68.2878418 C-35.15561813 69.47355774 -35.15561813 69.47355774 -35.17166138 70.68322754 C-35.20047182 73.29702722 -35.19411324 75.90950711 -35.1875 78.5234375 C-35.20061148 80.33520676 -35.21591401 82.14696139 -35.23332214 83.95869446 C-35.27324967 88.72795284 -35.28336755 93.49682953 -35.28735352 98.26623535 C-35.2966704 103.13268673 -35.3340748 107.99891246 -35.36914062 112.86523438 C-35.43379531 122.41405189 -35.46697073 131.96270152 -35.48046875 141.51171875 C-40.04676915 140.05551441 -43.85394274 138.2779591 -47.98046875 135.82421875 C-54.08280922 132.23096662 -60.31203376 129.07664154 -66.71484375 126.0546875 C-69.48046875 124.51171875 -69.48046875 124.51171875 -71.48046875 121.51171875 C-71.76567078 118.39546204 -71.76567078 118.39546204 -71.81518555 114.50512695 C-71.82683746 113.79577499 -71.83848938 113.08642303 -71.85049438 112.35557556 C-71.88650681 110.0079076 -71.90836402 107.66034385 -71.9296875 105.3125 C-71.9509486 103.67684525 -71.97291621 102.04119955 -71.99555969 100.40556335 C-72.04098798 96.97329777 -72.07976275 93.54104235 -72.11352539 90.10864258 C-72.15689771 85.7250997 -72.21364922 81.34186209 -72.27507305 76.95853901 C-72.32146154 73.57753705 -72.36216358 70.19648559 -72.40104103 66.81538963 C-72.41999899 65.20036321 -72.44034226 63.58535239 -72.46213341 61.97036171 C-72.49158154 59.70202194 -72.5137346 57.43372188 -72.53393555 55.1652832 C-72.54788864 53.87749466 -72.56184174 52.58970612 -72.57621765 51.26289368 C-72.29938378 40.4173146 -72.29938378 40.4173146 -69.78979492 37.64208984 C-68.6988855 37.03228271 -68.6988855 37.03228271 -67.5859375 36.41015625 C-66.77044434 35.93288086 -65.95495117 35.45560547 -65.11474609 34.96386719 C-64.24543457 34.4846582 -63.37612305 34.00544922 -62.48046875 33.51171875 C-60.74560197 32.46520764 -59.01256046 31.41566538 -57.28125 30.36328125 C-55.45352274 29.28487428 -53.62404337 28.20943226 -51.79296875 27.13671875 C-50.82399658 26.56655029 -49.85502441 25.99638184 -48.85668945 25.40893555 C-42.57852326 21.72152615 -36.27290695 18.08719214 -29.94140625 14.4921875 C-25.70787041 12.06961112 -21.49815766 9.60809228 -17.29296875 7.13671875 C-16.56102295 6.70721924 -15.82907715 6.27771973 -15.07495117 5.83520508 C-14.39021729 5.43197021 -13.7054834 5.02873535 -13 4.61328125 C-12.39260986 4.25572754 -11.78521973 3.89817383 -11.15942383 3.52978516 C-6.95862275 0.98254937 -4.91108855 -0.10314079 0 0 Z " fill="#263F5F" transform="translate(251.48046875,101.48828125)"/>
<path d="M0 0 C1.0209375 -0.02030273 1.0209375 -0.02030273 2.0625 -0.04101562 C8.13570084 0.01215442 11.93328589 2.08052393 16.875 5.375 C17.535 4.055 18.195 2.735 18.875 1.375 C23.165 1.375 27.455 1.375 31.875 1.375 C32.90544336 7.2332613 32.9704935 12.86645142 32.859375 18.8046875 C32.83463104 20.28934006 32.83463104 20.28934006 32.80938721 21.8039856 C32.77203291 23.89005235 32.73150596 25.97606444 32.68798828 28.06201172 C32.6253421 31.23268565 32.58380578 34.40319879 32.54296875 37.57421875 C32.50390499 39.60940038 32.4635816 41.64455831 32.421875 43.6796875 C32.41234802 44.6174704 32.40282104 45.5552533 32.39300537 46.52145386 C32.14221386 56.30045795 29.60625273 64.15241495 22.875 71.375 C15.91248491 76.88699111 9.34979905 77.76534035 0.75 77.75 C-0.6436377 77.74758301 -0.6436377 77.74758301 -2.06542969 77.74511719 C-8.99780349 77.62188573 -16.11140083 77.21044514 -22.125 73.375 C-23.85534354 69.43867345 -22.74267422 65.4928281 -22.125 61.375 C-18.36094291 60.1203143 -17.31660551 60.88109982 -13.6875 62.3125 C-6.19666779 64.92748143 1.02731315 65.96714628 8.5 62.875 C9.28375 62.38 10.0675 61.885 10.875 61.375 C11.535 61.375 12.195 61.375 12.875 61.375 C14.48564629 57.72420174 15.32394091 54.3242568 15.875 50.375 C14.781875 51.014375 13.68875 51.65375 12.5625 52.3125 C6.22599447 56.01875795 0.09243904 56.20504502 -7.125 55.375 C-15.08743375 52.68988523 -21.29145864 49.08853422 -25.078125 41.453125 C-28.3355056 33.33928604 -28.47022125 24.12338174 -25.4375 15.9375 C-23.53968389 11.79742429 -21.34424182 8.59424182 -18.125 5.375 C-17.465 5.375 -16.805 5.375 -16.125 5.375 C-16.125 4.715 -16.125 4.055 -16.125 3.375 C-10.76517583 0.69508792 -5.95914508 0.04911383 0 0 Z M-6.125 15.375 C-10.89462955 20.39566269 -11.48178852 23.86539701 -11.40234375 30.609375 C-11.01098046 34.51198363 -9.81120197 36.54741898 -7.125 39.375 C-2.74126546 42.2974897 0.65277599 42.934524 5.875 42.375 C10.04549359 40.73951232 12.98321038 38.80230622 15.875 35.375 C17.41478427 30.7556472 17.84720892 25.93065809 16.0859375 21.30078125 C14.35416896 18.14790494 12.88729951 16.38319967 9.875 14.375 C4.25865723 13.02533623 -0.76099182 13.06111412 -6.125 15.375 Z " fill="#233A56" transform="translate(247.125,303.625)"/>
<path d="M0 0 C1.2043395 0.65755522 2.39679579 1.33865873 3.5625 2.0625 C4.2225 2.3925 4.8825 2.7225 5.5625 3.0625 C5.5625 3.7225 5.5625 4.3825 5.5625 5.0625 C6.2225 5.0625 6.8825 5.0625 7.5625 5.0625 C7.5625 5.7225 7.5625 6.3825 7.5625 7.0625 C8.2225 7.0625 8.8825 7.0625 9.5625 7.0625 C13.88609669 15.13321382 16.03846651 21.86048076 15.5625 31.0625 C15.0675 32.0525 15.0675 32.0525 14.5625 33.0625 C1.0325 33.0625 -12.4975 33.0625 -26.4375 33.0625 C-23.55539288 39.13078697 -23.55539288 39.13078697 -18.4375 42.0625 C-17.7775 42.3925 -17.1175 42.7225 -16.4375 43.0625 C-13.98645534 43.18722772 -11.57618652 43.24766331 -9.125 43.25 C-7.80886719 43.26417969 -6.49273437 43.27835937 -5.13671875 43.29296875 C-1.6812308 43.07768492 0.45347692 42.45850142 3.5625 41.0625 C6.87381112 41.22018148 8.09467698 41.56241332 10.375 44 C11.5625 46.0625 11.5625 46.0625 11.5625 48.0625 C12.2225 48.0625 12.8825 48.0625 13.5625 48.0625 C13.5625 49.0525 13.5625 50.0425 13.5625 51.0625 C11.52373051 51.88224263 9.48133925 52.6929807 7.4375 53.5 C6.30054688 53.95246094 5.16359375 54.40492188 3.9921875 54.87109375 C-7.26263285 58.78079786 -18.84905278 57.607396 -29.765625 53.1015625 C-36.26923297 49.6015292 -39.71923842 43.67206712 -42.25 36.8828125 C-44.94861728 27.25024804 -43.08256787 17.4640086 -38.375 8.75 C-30.62056294 -2.77494315 -12.16596569 -5.4955917 0 0 Z M-22.4375 13.0625 C-22.4375 13.7225 -22.4375 14.3825 -22.4375 15.0625 C-23.4275 15.3925 -24.4175 15.7225 -25.4375 16.0625 C-26.0975 18.0425 -26.7575 20.0225 -27.4375 22.0625 C-18.5275 22.0625 -9.6175 22.0625 -0.4375 22.0625 C-1.50762804 16.71185981 -2.83057842 14.01769118 -7.1875 10.75 C-12.84938384 9.01997994 -17.8020502 9.29619704 -22.4375 13.0625 Z " fill="#253C58" transform="translate(199.4375,305.9375)"/>
<path d="M0 0 C0.82113281 -0.020625 1.64226562 -0.04125 2.48828125 -0.0625 C9.51710118 -0.1070567 14.8104986 1.2903324 20.75 5.25 C20.75 5.91 20.75 6.57 20.75 7.25 C21.41 7.25 22.07 7.25 22.75 7.25 C27.28236672 14.5602689 27.90239749 20.66103553 27.84765625 29.1484375 C27.8462413 29.98339752 27.84482635 30.81835754 27.84336853 31.67861938 C27.83780174 34.32745042 27.82525547 36.9761948 27.8125 39.625 C27.8074807 41.42838419 27.80291855 43.23176971 27.79882812 45.03515625 C27.7878432 49.44013721 27.77060163 53.84505394 27.75 58.25 C25.64695523 58.3580023 23.54233091 58.43558987 21.4375 58.5 C20.26574219 58.54640625 19.09398437 58.5928125 17.88671875 58.640625 C14.75 58.25 14.75 58.25 12.83203125 56.234375 C12.47496094 55.57953125 12.11789062 54.9246875 11.75 54.25 C11.1725 54.724375 10.595 55.19875 10 55.6875 C3.88501334 59.93401851 -5.112601 58.67316595 -12.25 58.25 C-15.25080075 57.53710259 -17.48069257 56.63465371 -20.25 55.25 C-20.25 54.59 -20.25 53.93 -20.25 53.25 C-20.91 53.25 -21.57 53.25 -22.25 53.25 C-22.25 52.59 -22.25 51.93 -22.25 51.25 C-22.91 51.25 -23.57 51.25 -24.25 51.25 C-27.24277531 46.24607969 -26.84905316 40.8992988 -26.25 35.25 C-23.9345776 30.15607072 -20.21214647 26.7547025 -15.25 24.25 C-5.61789997 21.21738123 3.06950878 22.02824792 12.75 24.25 C10.70947097 18.25707392 10.70947097 18.25707392 6.625 13.6875 C-2.81002936 12.25173466 -10.28652934 14.10295074 -19.25 17.25 C-19.75559908 15.81445975 -20.2542749 14.3764798 -20.75 12.9375 C-21.0284375 12.13699219 -21.306875 11.33648437 -21.59375 10.51171875 C-22.25 8.25 -22.25 8.25 -22.25 5.25 C-20.83521865 4.60004703 -19.41808513 3.95521278 -18 3.3125 C-17.21109375 2.95285156 -16.4221875 2.59320313 -15.609375 2.22265625 C-10.40121688 0.07558444 -5.56525386 0.03430049 0 0 Z M-10.25 37.5625 C-11.50749652 40.21111066 -11.50749652 40.21111066 -10.6875 42.9375 C-9.03747422 45.5918893 -8.10111656 46.10546575 -5.25 47.25 C0.70535632 48.09762003 5.55446211 47.21887879 10.75 44.25 C12.97669079 41.34562071 12.94929373 38.83728717 12.75 35.25 C0.36043345 31.98259767 0.36043345 31.98259767 -10.25 37.5625 Z " fill="#243A56" transform="translate(313.25,303.75)"/>
<path d="M0 0 C1.26108078 0.0001133 1.26108078 0.0001133 2.54763794 0.00022888 C3.91020218 0.00797081 3.91020218 0.00797081 5.30029297 0.01586914 C6.22969696 0.01728409 7.15910095 0.01869904 8.1166687 0.02015686 C11.09197171 0.02576486 14.06720011 0.03831871 17.04248047 0.05102539 C19.0568023 0.05603936 21.07112531 0.06060245 23.08544922 0.06469727 C28.02948849 0.07573689 32.97347182 0.0930069 37.91748047 0.11352539 C37.91748047 0.44352539 37.91748047 0.77352539 37.91748047 1.11352539 C24.38748047 1.11352539 10.85748047 1.11352539 -3.08251953 1.11352539 C-0.20041242 7.18181236 -0.20041242 7.18181236 4.91748047 10.11352539 C5.57748047 10.44352539 6.23748047 10.77352539 6.91748047 11.11352539 C9.36852513 11.23825311 11.77879395 11.2986887 14.22998047 11.30102539 C16.20417969 11.32229492 16.20417969 11.32229492 18.21826172 11.34399414 C21.67374967 11.12871031 23.80845739 10.50952681 26.91748047 9.11352539 C30.22879159 9.27120687 31.44965744 9.61343871 33.72998047 12.05102539 C34.91748047 14.11352539 34.91748047 14.11352539 34.91748047 16.11352539 C35.57748047 16.11352539 36.23748047 16.11352539 36.91748047 16.11352539 C36.91748047 17.10352539 36.91748047 18.09352539 36.91748047 19.11352539 C34.87871098 19.93326802 32.83631972 20.74400609 30.79248047 21.55102539 C29.65552734 22.00348633 28.51857422 22.45594727 27.34716797 22.92211914 C17.48816382 26.34694405 7.90376079 25.49323474 -2.08251953 23.11352539 C-3.19970703 19.39477539 -3.19970703 19.39477539 -2.14501953 16.86352539 C-1.79439453 16.28602539 -1.44376953 15.70852539 -1.08251953 15.11352539 C-1.74251953 14.78352539 -2.40251953 14.45352539 -3.08251953 14.11352539 C-2.44314453 13.98977539 -1.80376953 13.86602539 -1.14501953 13.73852539 C-0.46439453 13.53227539 0.21623047 13.32602539 0.91748047 13.11352539 C1.24748047 12.45352539 1.57748047 11.79352539 1.91748047 11.11352539 C0.92748047 11.11352539 -0.06251953 11.11352539 -1.08251953 11.11352539 C-4.0544458 8.84087589 -4.98217695 7.54834323 -5.83251953 3.86352539 C-5.91501953 2.95602539 -5.99751953 2.04852539 -6.08251953 1.11352539 C-3.79620459 -0.02963208 -2.53904547 -0.00760193 0 0 Z " fill="#314661" transform="translate(176.08251953125,337.886474609375)"/>
<path d="M0 0 C1.77111844 0.47811177 3.54188483 0.9575278 5.3125 1.4375 C6.29863281 1.70433594 7.28476563 1.97117187 8.30078125 2.24609375 C10.21517526 2.78079425 12.11433615 3.37144538 14 4 C16.39490986 4.06970052 18.79167691 4.08448003 21.1875 4.0625 C22.45980469 4.05347656 23.73210937 4.04445313 25.04296875 4.03515625 C26.01878906 4.02355469 26.99460938 4.01195312 28 4 C27.67 4.66 27.34 5.32 27 6 C24.78515625 6.37890625 24.78515625 6.37890625 22.0625 6.5625 C18.39324879 6.76801323 18.39324879 6.76801323 15 8 C15.33 9.65 15.66 11.3 16 13 C15.01 13.33 14.02 13.66 13 14 C12.67 14.66 12.34 15.32 12 16 C19.26 15.67 26.52 15.34 34 15 C31.14180203 17.85819797 28.87698248 17.31545172 24.96386719 17.37988281 C24.02704102 17.37827148 23.09021484 17.37666016 22.125 17.375 C21.17786133 17.37338867 20.23072266 17.37177734 19.25488281 17.37011719 C12.25345412 17.24804099 5.07767265 16.8763109 -1 13 C-2.72555554 9.04765613 -1.67623616 5.12504058 -1 1 C-0.67 0.67 -0.34 0.34 0 0 Z " fill="#354A63" transform="translate(226,364)"/>
<path d="M0 0 C0.66 0.33 1.32 0.66 2 1 C1.43628586 4.26954202 0.50037734 5.82575883 -2 8 C-1.67 8.99 -1.34 9.98 -1 11 C-4.20062687 12.60031344 -6.72271806 11.03173691 -10 10 C-10.33 10.66 -10.66 11.32 -11 12 C-11.969375 12.268125 -12.93875 12.53625 -13.9375 12.8125 C-17.20135368 13.66595894 -17.20135368 13.66595894 -18.125 16.5 C-18.558125 17.7375 -18.558125 17.7375 -19 19 C-21.83055769 20.91747457 -23.59531601 21 -27 21 C-27.33 47.07 -27.66 73.14 -28 100 C-28.33 100 -28.66 100 -29 100 C-29.15425068 90.4898581 -29.30242709 80.9796462 -29.4429636 71.46929169 C-29.5084167 67.05271746 -29.57591978 62.63619486 -29.64819336 58.21972656 C-29.71793345 53.95337712 -29.78217684 49.68697632 -29.84269524 45.42048645 C-29.86667229 43.7970736 -29.89259157 42.17368818 -29.92053413 40.55033875 C-29.95949144 38.26732668 -29.9913863 35.98431255 -30.02172852 33.70117188 C-30.04171402 32.40433472 -30.06169952 31.10749756 -30.08229065 29.7713623 C-29.84571835 18.92930609 -29.84571835 18.92930609 -27.30053711 16.13256836 C-26.5710083 15.72659424 -25.84147949 15.32062012 -25.08984375 14.90234375 C-24.27628418 14.42651855 -23.46272461 13.95069336 -22.62451172 13.46044922 C-21.75842285 12.97850098 -20.89233398 12.49655273 -20 12 C-18.26863137 10.92358451 -16.54079053 9.84147532 -14.81640625 8.75390625 C-13.06651254 7.68778905 -11.31520131 6.62399516 -9.5625 5.5625 C-8.21768555 4.73202148 -8.21768555 4.73202148 -6.84570312 3.88476562 C-5.99041016 3.36720703 -5.13511719 2.84964844 -4.25390625 2.31640625 C-3.48377197 1.84662354 -2.7136377 1.37684082 -1.92016602 0.89282227 C-1.28651123 0.59819092 -0.65285645 0.30355957 0 0 Z " fill="#5A6B85" transform="translate(209,123)"/>
<path d="M0 0 C0.33 0 0.66 0 1 0 C1 2.31 1 4.62 1 7 C2.97536745 6.65213292 2.97536745 6.65213292 5 6 C5.33 5.34 5.66 4.68 6 4 C6 4.66 6 5.32 6 6 C7.65 5.34 9.3 4.68 11 4 C12.5 5.3125 12.5 5.3125 14 7 C14 7.99 14 8.98 14 10 C13.01 10.495 13.01 10.495 12 11 C12.99 11 13.98 11 15 11 C15 9.35 15 7.7 15 6 C15.433125 6.61875 15.86625 7.2375 16.3125 7.875 C17.99740483 10.2197245 17.99740483 10.2197245 21 12 C20.030625 12.28875 19.06125 12.5775 18.0625 12.875 C14.89335797 13.64214682 14.89335797 13.64214682 14 16 C14.33 16.66 14.66 17.32 15 18 C15 19.32 15 20.64 15 22 C15.99 22.33 16.98 22.66 18 23 C13.6822542 22.49202991 9.96697886 21.80317221 6 20 C6 19.34 6 18.68 6 18 C5.34 18 4.68 18 4 18 C4 17.34 4 16.68 4 16 C3.34 16 2.68 16 2 16 C-0.14336161 12.5233662 -0.21277626 9.78770805 -0.125 5.75 C-0.10695313 4.67234375 -0.08890625 3.5946875 -0.0703125 2.484375 C-0.04710937 1.66453125 -0.02390625 0.8446875 0 0 Z " fill="#2F455F" transform="translate(287,339)"/>
<path d="M0 0 C0.80179687 0.05220703 1.60359375 0.10441406 2.4296875 0.15820312 C4.41179103 0.28798371 6.39344499 0.42459735 8.375 0.5625 C8.705 2.8725 9.035 5.1825 9.375 7.5625 C3.12483486 10.97168098 -2.58444139 11.09774715 -9.625 10.5625 C-10.615 10.2325 -11.605 9.9025 -12.625 9.5625 C-13.75 7.125 -13.75 7.125 -14.625 4.5625 C-14.955 3.9025 -15.285 3.2425 -15.625 2.5625 C-14.84125 2.253125 -14.0575 1.94375 -13.25 1.625 C-8.49006716 -0.30163948 -5.13408098 -0.3625528 0 0 Z " fill="#1C3350" transform="translate(314.625,351.4375)"/>
<path d="M0 0 C1.3303125 0.433125 1.3303125 0.433125 2.6875 0.875 C3.0175 3.185 3.3475 5.495 3.6875 7.875 C4.6775 7.545 5.6675 7.215 6.6875 6.875 C6.6875 7.535 6.6875 8.195 6.6875 8.875 C5.6975 9.37 5.6975 9.37 4.6875 9.875 C5.0175 10.205 5.3475 10.535 5.6875 10.875 C5.82865161 13.54558851 5.72997107 16.19932238 5.6875 18.875 C4.6975 18.875 3.7075 18.875 2.6875 18.875 C2.3575 19.535 2.0275 20.195 1.6875 20.875 C1.6875 19.885 1.6875 18.895 1.6875 17.875 C2.6775 17.875 3.6675 17.875 4.6875 17.875 C3.3785428 14.75302522 3.3785428 14.75302522 0.6875 12.875 C0.0275 13.535 -0.6325 14.195 -1.3125 14.875 C-2.3025 14.545 -3.2925 14.215 -4.3125 13.875 C-6.45505793 14.26432856 -6.45505793 14.26432856 -8.3125 14.875 C-8.78265521 10.17344793 -9.09780149 6.19238924 -6.1875 2.25 C-3.3125 -0.125 -3.3125 -0.125 0 0 Z " fill="#1A304D" transform="translate(296.3125,331.125)"/>
<path d="M0 0 C-0.28427417 1.58467728 -0.57774818 3.1677057 -0.875 4.75 C-1.03742188 5.63171875 -1.19984375 6.5134375 -1.3671875 7.421875 C-1.98069075 9.92133267 -2.60948335 11.83697411 -4 14 C-7.125 15.25 -7.125 15.25 -10 16 C-10.50559908 14.56445975 -11.0042749 13.1264798 -11.5 11.6875 C-11.7784375 10.88699219 -12.056875 10.08648437 -12.34375 9.26171875 C-13 7 -13 7 -13 4 C-11.58774074 3.32404685 -10.16997095 2.65959941 -8.75 2 C-7.56664062 1.443125 -7.56664062 1.443125 -6.359375 0.875 C-4 0 -4 0 0 0 Z " fill="#2A415F" transform="translate(304,305)"/>
<path d="M0 0 C1.98 0.99 3.96 1.98 6 3 C6 3.66 6 4.32 6 5 C6.66 5 7.32 5 8 5 C8.66 6.65 9.32 8.3 10 10 C8.906875 9.505 7.81375 9.01 6.6875 8.5 C3.20033755 6.81160094 3.20033755 6.81160094 0 7 C-1.77759876 11.96920684 -1.77759876 11.96920684 -1 17 C-1.66 17.66 -2.32 18.32 -3 19 C-3.433125 18.030625 -3.86625 17.06125 -4.3125 16.0625 C-5.7014861 12.72268235 -5.7014861 12.72268235 -9 12 C-8.42415568 9.61435923 -7.77772405 7.33317216 -7 5 C-3.4375 3.8125 -3.4375 3.8125 0 3 C0 2.01 0 1.02 0 0 Z M1 7 C1.99 7.495 1.99 7.495 3 8 C2.01 8.495 2.01 8.495 1 9 C1 8.34 1 7.68 1 7 Z " fill="#2A3E59" transform="translate(328,306)"/>
<path d="M0 0 C0.33 0.99 0.66 1.98 1 3 C-0.32 4.32 -1.64 5.64 -3 7 C-0.60490662 9.89932357 1.31245243 10.50168276 5 11 C4.01 11.495 4.01 11.495 3 12 C3 13.98 3 15.96 3 18 C2.34 17.01 1.68 16.02 1 15 C-0.670625 16.0209375 -0.670625 16.0209375 -2.375 17.0625 C-4.2734375 18.22265625 -4.2734375 18.22265625 -6 19 C-6.66 18.67 -7.32 18.34 -8 18 C-7.01 17.34 -6.02 16.68 -5 16 C-5.96776098 12.20452079 -5.96776098 12.20452079 -8 9 C-10.32817964 8.63239269 -12.6618385 8.29758419 -15 8 C-15 7.67 -15 7.34 -15 7 C-14.12988281 6.87044922 -14.12988281 6.87044922 -13.2421875 6.73828125 C-7.41168056 5.6895597 -4.24345436 4.13464784 0 0 Z " fill="#2F4560" transform="translate(262,339)"/>
<path d="M0 0 C-0.66666667 3.33333333 -1.33333333 6.66666667 -2 10 C-5.96 9.67 -9.92 9.34 -14 9 C-14 8.67 -14 8.34 -14 8 C-12.35 7.67 -10.7 7.34 -9 7 C-8.67 5.02 -8.34 3.04 -8 1 C-5.07175348 0.02391783 -3.04386724 -0.08226668 0 0 Z " fill="#1A314D" transform="translate(198,306)"/>
<path d="M0 0 C2.31 0.66 4.62 1.32 7 2 C7 3.32 7 4.64 7 6 C4.35261084 7.4606285 3.10551666 8 0 8 C0 8.66 0 9.32 0 10 C-1.32 10.33 -2.64 10.66 -4 11 C-4 10.01 -4 9.02 -4 8 C-4.66 7.67 -5.32 7.34 -6 7 C-5.38125 6.5875 -4.7625 6.175 -4.125 5.75 C-1.93231719 3.94426121 -1.07211583 2.5909466 0 0 Z " fill="#30455F" transform="translate(278,119)"/>
<path d="M0 0 C3 3.20689655 3 3.20689655 3 6 C3.66 6 4.32 6 5 6 C5 6.99 5 7.98 5 9 C3.68 9.33 2.36 9.66 1 10 C1.33 9.01 1.66 8.02 2 7 C-1.58327753 5.99782936 -1.58327753 5.99782936 -5 7 C-5.12375 6.030625 -5.2475 5.06125 -5.375 4.0625 C-5.58125 3.051875 -5.7875 2.04125 -6 1 C-6.66 0.67 -7.32 0.34 -8 0 C-4.64106891 -1.1196437 -3.32285646 -1.07992835 0 0 Z " fill="#3A4C64" transform="translate(208,348)"/>
<path d="M0 0 C1.98 0.99 1.98 0.99 4 2 C2.68 2.33 1.36 2.66 0 3 C0 2.01 0 1.02 0 0 Z M-1 3 C-0.34 3.33 0.32 3.66 1 4 C1.38063221 6.3260857 1.71269945 8.66055264 2 11 C2.33 11.66 2.66 12.32 3 13 C0.3125 13.75 0.3125 13.75 -3 14 C-5.875 12.0625 -5.875 12.0625 -8 10 C-6.35 9.67 -4.7 9.34 -3 9 C-3 8.01 -3 7.02 -3 6 C-2.34 5.67 -1.68 5.34 -1 5 C-1 4.34 -1 3.68 -1 3 Z " fill="#384B63" transform="translate(198,306)"/>
<path d="M0 0 C-0.20625 1.051875 -0.4125 2.10375 -0.625 3.1875 C-0.99963104 6.99624887 -0.71630067 8.66835752 1 12 C-0.32 12.33 -1.64 12.66 -3 13 C-3.50559908 11.56445975 -4.0042749 10.1264798 -4.5 8.6875 C-4.7784375 7.88699219 -5.056875 7.08648437 -5.34375 6.26171875 C-6 4 -6 4 -6 1 C-4 0 -4 0 0 0 Z " fill="#415165" transform="translate(297,308)"/>
<path d="M0 0 C1.32 0.66 2.64 1.32 4 2 C4 3.32 4 4.64 4 6 C2.54462432 6.83848804 1.08559627 7.67063934 -0.375 8.5 C-1.18710938 8.9640625 -1.99921875 9.428125 -2.8359375 9.90625 C-5 11 -5 11 -7 11 C-7.33 10.01 -7.66 9.02 -8 8 C-6.8553125 7.4121875 -6.8553125 7.4121875 -5.6875 6.8125 C-2.75283929 4.83331022 -1.59873102 3.1133183 0 0 Z " fill="#2E445E" transform="translate(235,144)"/>
<path d="M0 0 C1.50433594 0.01353516 1.50433594 0.01353516 3.0390625 0.02734375 C3.80992187 0.03894531 4.58078125 0.05054688 5.375 0.0625 C5.045 1.3825 4.715 2.7025 4.375 4.0625 C3.715 4.0625 3.055 4.0625 2.375 4.0625 C2.045 4.7225 1.715 5.3825 1.375 6.0625 C-0.935 5.4025 -3.245 4.7425 -5.625 4.0625 C-5.625 3.4025 -5.625 2.7425 -5.625 2.0625 C-6.285 1.7325 -6.945 1.4025 -7.625 1.0625 C-4.98041621 -0.25979189 -2.94738699 -0.03427194 0 0 Z M-5.625 5.0625 C-3.625 6.0625 -3.625 6.0625 -3.625 6.0625 Z " fill="#15304E" transform="translate(244.625,304.9375)"/>
<path d="M0 0 C0.99 0.33 1.98 0.66 3 1 C3.0867982 4.79152334 3.14032207 8.58279296 3.1875 12.375 C3.21263672 13.45523438 3.23777344 14.53546875 3.26367188 15.6484375 C3.27333984 16.6796875 3.28300781 17.7109375 3.29296875 18.7734375 C3.3086792 19.72653809 3.32438965 20.67963867 3.34057617 21.66162109 C3.22818604 22.43328613 3.1157959 23.20495117 3 24 C2.01 24.66 1.02 25.32 0 26 C-0.33 25.01 -0.66 24.02 -1 23 C-0.01 23 0.98 23 2 23 C1.814375 22.05125 1.62875 21.1025 1.4375 20.125 C0.73231407 15.35520074 1.37867362 10.75075712 2 6 C1.01 5.67 0.02 5.34 -1 5 C-0.34 5 0.32 5 1 5 C0.01 3.68 -0.98 2.36 -2 1 C-1.34 0.67 -0.68 0.34 0 0 Z " fill="#4E5F75" transform="translate(317,200)"/>
<path d="M0 0 C2.00720923 0.28674418 4.0085944 0.61866701 6 1 C6.33 2.32 6.66 3.64 7 5 C6.34 5 5.68 5 5 5 C4.67 5.66 4.34 6.32 4 7 C3.34 6.67 2.68 6.34 2 6 C2 6.66 2 7.32 2 8 C0.35 8 -1.3 8 -3 8 C-1.125 1.125 -1.125 1.125 0 0 Z M1 1 C1.33 1.66 1.66 2.32 2 3 C2.33 2.34 2.66 1.68 3 1 C2.34 1 1.68 1 1 1 Z " fill="#172F4E" transform="translate(328,312)"/>
<path d="M0 0 C-0.3125 2.375 -0.3125 2.375 -1 5 C-4 7 -4 7 -6.6875 6.625 C-7.450625 6.41875 -8.21375 6.2125 -9 6 C-8.625 3.5625 -8.625 3.5625 -8 1 C-5.32916926 -0.33541537 -2.92701445 0 0 0 Z " fill="#334763" transform="translate(271,128)"/>
<path d="M0 0 C1.9375 0.625 1.9375 0.625 4 2 C4.75 5.125 4.75 5.125 5 8 C5.99 7.67 6.98 7.34 8 7 C8 7.66 8 8.32 8 9 C5.61888932 9.85039667 4.28649422 10.07366994 1.8125 9.4375 C0 8 0 8 -0.8125 5 C-1 2 -1 2 0 0 Z " fill="#18304D" transform="translate(295,331)"/>
<path d="M0 0 C-0.99730136 2.4932534 -1.65074531 3.77467439 -3.9375 5.25 C-6.07564762 6.02750823 -7.73205074 6 -10 6 C-10 4.35 -10 2.7 -10 1 C-6.78548731 -0.60725635 -3.56387464 -0.05748185 0 0 Z " fill="#3A4F6F" transform="translate(192,138)"/>
<path d="M0 0 C6.28260706 -0.23268915 11.88019467 0.59545452 18 2 C18.33 1.34 18.66 0.68 19 0 C19 0.99 19 1.98 19 3 C12.39384924 4.5013979 6.58010343 3.30737687 0 2 C0 1.34 0 0.68 0 0 Z " fill="#576C7C" transform="translate(308,326)"/>
<path d="M0 0 C-2.21954651 1.37257477 -4.44835409 2.72259151 -6.6875 4.0625 C-7.31333984 4.45244141 -7.93917969 4.84238281 -8.58398438 5.24414062 C-11.57866815 7.01586454 -13.43638913 8.04839459 -16.95703125 7.74609375 C-17.63121094 7.49988281 -18.30539062 7.25367188 -19 7 C-19 6.34 -19 5.68 -19 5 C-15.98968256 4.06576355 -15.13349732 3.95550089 -12 5 C-12 4.34 -12 3.68 -12 3 C-10.68 3 -9.36 3 -8 3 C-8 2.34 -8 1.68 -8 1 C-4.85571151 -0.9090323 -3.47925125 -1.04523725 0 0 Z " fill="#4E5F73" transform="translate(293,201)"/>
<path d="M0 0 C2.35448165 2.55068845 2.98327924 3.71017358 3.1875 7.25 C3.125625 8.1575 3.06375 9.065 3 10 C2.113125 9.195625 1.22625 8.39125 0.3125 7.5625 C-2.38287032 5.2960841 -4.42063478 4.31582634 -8 4 C-6.1875 2.4375 -6.1875 2.4375 -4 1 C-3.01 1.33 -2.02 1.66 -1 2 C-0.67 1.34 -0.34 0.68 0 0 Z " fill="#3F5269" transform="translate(260,314)"/>
<path d="M0 0 C1.98 0.99 3.96 1.98 6 3 C6 3.66 6 4.32 6 5 C6.66 5 7.32 5 8 5 C8.66 6.65 9.32 8.3 10 10 C6.83714265 8.91376616 3.8453913 7.77165873 1 6 C-0.0625 2.75 -0.0625 2.75 0 0 Z M1 7 C1.99 7.495 1.99 7.495 3 8 C2.01 8.495 2.01 8.495 1 9 C1 8.34 1 7.68 1 7 Z " fill="#536173" transform="translate(328,306)"/>
<path d="M0 0 C0.66 0 1.32 0 2 0 C2.309375 0.928125 2.309375 0.928125 2.625 1.875 C4.54775888 4.84653645 6.66594527 5.13024659 10 6 C9.67 6.99 9.34 7.98 9 9 C6.125 9.125 6.125 9.125 3 9 C0.23776722 6.23776722 0.42143709 3.79293383 0 0 Z " fill="#182F4D" transform="translate(200,349)"/>
<path d="M0 0 C0 2.31 0 4.62 0 7 C-2.375 8.0625 -2.375 8.0625 -5 9 C-5.66 8.67 -6.32 8.34 -7 8 C-4.18918919 0 -4.18918919 0 0 0 Z " fill="#445369" transform="translate(295,331)"/>
<path d="M0 0 C0.33 0.99 0.66 1.98 1 3 C-4.33971292 8.784689 -4.33971292 8.784689 -8 9 C-10.34114367 8.72686657 -12.67750658 8.40197001 -15 8 C-15 7.67 -15 7.34 -15 7 C-14.12988281 6.87044922 -14.12988281 6.87044922 -13.2421875 6.73828125 C-7.41168056 5.6895597 -4.24345436 4.13464784 0 0 Z " fill="#57687C" transform="translate(262,339)"/>
<path d="M0 0 C2.46278801 2.46278801 2.99771255 4.70676982 4 8 C3.34 8 2.68 8 2 8 C2 9.65 2 11.3 2 13 C1.01 13.495 1.01 13.495 0 14 C0 9.38 0 4.76 0 0 Z M-4 16 C-3.34 16.33 -2.68 16.66 -2 17 C-2.99 17 -3.98 17 -5 17 C-4.67 16.67 -4.34 16.34 -4 16 Z " fill="#182D48" transform="translate(300,158)"/>
<path d="M0 0 C0.33 0.66 0.66 1.32 1 2 C-0.0725 1.896875 -1.145 1.79375 -2.25 1.6875 C-6.14210148 1.59927598 -6.14210148 1.59927598 -8.4375 4.5 C-8.953125 5.325 -9.46875 6.15 -10 7 C-11.65 6.67 -13.3 6.34 -15 6 C-14.67 5.34 -14.34 4.68 -14 4 C-13.01 4 -12.02 4 -11 4 C-11 3.34 -11 2.68 -11 2 C-7.36576791 -0.32590854 -4.22911669 -0.16265833 0 0 Z " fill="#213751" transform="translate(253,103)"/>
<path d="M0 0 C3.89730729 1.47828897 4.94269008 3.48542888 7 7 C9.06954847 8.78344178 9.06954847 8.78344178 11 10 C7.48612204 10.31944345 5.62449613 10.43883512 2.6875 8.375 C0.68766661 5.56041967 0.30970947 3.40680413 0 0 Z " fill="#455469" transform="translate(170,339)"/>
<path d="M0 0 C-1.55500981 3.81684226 -4.03595495 6.19195732 -7 9 C-7.8125 7.3125 -7.8125 7.3125 -8 5 C-3.90909091 0 -3.90909091 0 0 0 Z " fill="#516074" transform="translate(235,166)"/>
<path d="M0 0 C0.66 0.33 1.32 0.66 2 1 C1.25 3.4375 1.25 3.4375 0 6 C-1.9375 6.75 -1.9375 6.75 -4 7 C-4.99 7.33 -5.98 7.66 -7 8 C-7.99 7.34 -8.98 6.68 -10 6 C-8.3811004 4.96951963 -6.75467511 3.95085322 -5.125 2.9375 C-4.22007812 2.36902344 -3.31515625 1.80054688 -2.3828125 1.21484375 C-1.20332031 0.61349609 -1.20332031 0.61349609 0 0 Z " fill="#57667A" transform="translate(246,158)"/>
<path d="M0 0 C0.99 0.33 1.98 0.66 3 1 C3 5.62 3 10.24 3 15 C0.28932872 9.57865745 -0.11698159 6.08304293 0 0 Z " fill="#727E8D" transform="translate(156,330)"/>
<path d="M0 0 C2 2 2 2 2.125 5.125 C2.08375 6.07375 2.0425 7.0225 2 8 C1.01 8.495 1.01 8.495 0 9 C0 8.01 0 7.02 0 6 C-1.98 5.34 -3.96 4.68 -6 4 C-3.94766315 1.7522025 -2.99332739 0.9977758 0 0 Z " fill="#384C63" transform="translate(262,150)"/>
<path d="M0 0 C4.77609498 1.64178265 8.79382904 4.26546702 13 7 C9.04865524 8.1914033 6.78661425 7.76708665 3 6 C2.125 3.875 2.125 3.875 2 2 C1.34 2 0.68 2 0 2 C0 1.34 0 0.68 0 0 Z " fill="#4F5C73" transform="translate(304,133)"/>
<path d="M0 0 C0.99 0.33 1.98 0.66 3 1 C3 1.99 3 2.98 3 4 C3.99 4.33 4.98 4.66 6 5 C2.25 8 2.25 8 0 8 C0 7.34 0 6.68 0 6 C-0.66 5.67 -1.32 5.34 -2 5 C-1.34 3.35 -0.68 1.7 0 0 Z " fill="#18304C" transform="translate(252,350)"/>
<path d="M0 0 C0.66 0 1.32 0 2 0 C3.1577506 3.47325181 3.06866652 6.36067448 3 10 C2.34 10 1.68 10 1 10 C-2 5.61538462 -2 5.61538462 -2 3 C-1.34 2.34 -0.68 1.68 0 1 C0 0.67 0 0.34 0 0 Z " fill="#182B44" transform="translate(211,326)"/>
<path d="M0 0 C3.96 0 7.92 0 12 0 C12 1.32 12 2.64 12 4 C11.34 3.67 10.68 3.34 10 3 C5.95288854 1.7968047 3.78427644 2.16192287 0 4 C0 2.68 0 1.36 0 0 Z " fill="#1E2F45" transform="translate(266,306)"/>
<path d="M0 0 C1.2065625 0.0309375 1.2065625 0.0309375 2.4375 0.0625 C3.5 1.875 3.5 1.875 4.4375 4.0625 C4.1075 5.0525 3.7775 6.0425 3.4375 7.0625 C0.5 5.75 0.5 5.75 -2.5625 4.0625 C-2.8925 3.0725 -3.2225 2.0825 -3.5625 1.0625 C-2.5625 0.0625 -2.5625 0.0625 0 0 Z " fill="#2F455F" transform="translate(203.5625,231.9375)"/>
<path d="M0 0 C0.66 0.33 1.32 0.66 2 1 C0.28201227 3.8384145 -1.07018456 5.68152621 -4.26953125 6.77734375 C-6.50820309 7.26033279 -8.73321986 7.67548233 -11 8 C-7.45960866 5.0843836 -3.8373228 2.49872182 0 0 Z " fill="#5F748A" transform="translate(197,130)"/>
<path d="M0 0 C0.66 1.32 1.32 2.64 2 4 C2.66 4 3.32 4 4 4 C4 4.99 4 5.98 4 7 C2.68 7.33 1.36 7.66 0 8 C0.33 7.01 0.66 6.02 1 5 C-0.32 4.67 -1.64 4.34 -3 4 C-2.67 3.01 -2.34 2.02 -2 1 C-1.34 0.67 -0.68 0.34 0 0 Z " fill="#45566D" transform="translate(209,350)"/>
<path d="M0 0 C2.60444348 -0.05394705 5.20776998 -0.09364469 7.8125 -0.125 C8.55048828 -0.14175781 9.28847656 -0.15851563 10.04882812 -0.17578125 C13.91246426 -0.21074628 15.70903668 -0.19397555 19 2 C13.25 3.125 13.25 3.125 11 2 C8.99042942 2.03189795 6.98028924 2.06634162 4.97265625 2.16015625 C3 2 3 2 0 0 Z M9 2 C11 3 11 3 11 3 Z " fill="#46576C" transform="translate(239,304)"/>
<path d="M0 0 C2.64 0.33 5.28 0.66 8 1 C5.14521674 2.90318884 3.58058692 3.4619099 0.3125 4.125 C-0.49574219 4.29257812 -1.30398437 4.46015625 -2.13671875 4.6328125 C-2.75160156 4.75398438 -3.36648437 4.87515625 -4 5 C-3.34 4.67 -2.68 4.34 -2 4 C-0.86649466 1.98330173 -0.86649466 1.98330173 0 0 Z " fill="#4A5C71" transform="translate(201,357)"/>
<path d="M0 0 C0.99 0.66 1.98 1.32 3 2 C3 3.32 3 4.64 3 6 C2.01 6.33 1.02 6.66 0 7 C-0.99 6.34 -1.98 5.68 -3 5 C-2.625 3.0625 -2.625 3.0625 -2 1 C-1.34 0.67 -0.68 0.34 0 0 Z " fill="#18314E" transform="translate(307,224)"/>
<path d="M0 0 C1.67542976 0.28604898 3.34385343 0.61781233 5 1 C4.25 2.9375 4.25 2.9375 3 5 C0.875 5.75 0.875 5.75 -1 6 C-1.042721 4.33388095 -1.04063832 2.66617115 -1 1 C-0.67 0.67 -0.34 0.34 0 0 Z " fill="#4A566A" transform="translate(226,364)"/>
<path d="M0 0 C2.31 0 4.62 0 7 0 C5.88820837 3.33537489 4.52588702 4.63707344 2 7 C2 6.34 2 5.68 2 5 C1.34 5 0.68 5 0 5 C0 4.34 0 3.68 0 3 C0.66 2.67 1.32 2.34 2 2 C1.34 1.34 0.68 0.68 0 0 Z " fill="#1B314F" transform="translate(181,304)"/>
<path d="M0 0 C1.32 0.66 2.64 1.32 4 2 C-0.95 4.475 -0.95 4.475 -6 7 C-6 6.34 -6 5.68 -6 5 C-5.34 5 -4.68 5 -4 5 C-3.896875 4.360625 -3.79375 3.72125 -3.6875 3.0625 C-3.460625 2.381875 -3.23375 1.70125 -3 1 C-2.01 0.67 -1.02 0.34 0 0 Z " fill="#506477" transform="translate(244,185)"/>
<path d="M0 0 C2.31 0.66 4.62 1.32 7 2 C7 3.32 7 4.64 7 6 C6.34 5.67 5.68 5.34 5 5 C5.33 4.34 5.66 3.68 6 3 C5.01 3.495 5.01 3.495 4 4 C4 4.33 4 4.66 4 5 C2.35 5 0.7 5 -1 5 C-0.67 3.35 -0.34 1.7 0 0 Z " fill="#44566D" transform="translate(278,119)"/>
<path d="M0 0 C0.33 0 0.66 0 1 0 C1 2.97 1 5.94 1 9 C-0.65 7.68 -2.3 6.36 -4 5 C-3.34 5 -2.68 5 -2 5 C-1.7834375 4.0409375 -1.7834375 4.0409375 -1.5625 3.0625 C-1 1 -1 1 0 0 Z " fill="#1A2F47" transform="translate(277,351)"/>
<path d="M0 0 C2.64 0.33 5.28 0.66 8 1 C8 1.33 8 1.66 8 2 C7.071875 2.2475 6.14375 2.495 5.1875 2.75 C1.83541675 4.06454245 0.8122197 4.97963384 -1 8 C-1 7.34 -1 6.68 -1 6 C-1.66 5.67 -2.32 5.34 -3 5 C-2.01 4.67 -1.02 4.34 0 4 C0 2.68 0 1.36 0 0 Z " fill="#6B788E" transform="translate(303,336)"/>
<path d="M0 0 C-1.28524261 0.86380259 -2.57842419 1.71580369 -3.875 2.5625 C-4.59429687 3.03816406 -5.31359375 3.51382813 -6.0546875 4.00390625 C-6.69664062 4.33261719 -7.33859375 4.66132813 -8 5 C-8.66 4.67 -9.32 4.34 -10 4 C-4.75 -1.425 -4.75 -1.425 0 0 Z " fill="#657185" transform="translate(316,188)"/>
<path d="M0 0 C1.09570312 0.10183594 2.19140625 0.20367187 3.3203125 0.30859375 C4.16335938 0.39238281 5.00640625 0.47617187 5.875 0.5625 C5.875 0.8925 5.875 1.2225 5.875 1.5625 C0.925 2.2225 -4.025 2.8825 -9.125 3.5625 C-8.795 2.5725 -8.465 1.5825 -8.125 0.5625 C-5.28943413 -0.85528293 -3.1341294 -0.30007622 0 0 Z " fill="#5E6A80" transform="translate(311.125,314.4375)"/>
<path d="M0 0 C0 0.99 0 1.98 0 3 C-2.91482778 3.80967438 -4.46113217 4.21845993 -7.3125 3.0625 C-7.869375 2.711875 -8.42625 2.36125 -9 2 C-8.071875 1.855625 -7.14375 1.71125 -6.1875 1.5625 C-2.99274889 1.07899889 -2.99274889 1.07899889 0 0 Z " fill="#3A4D66" transform="translate(277,186)"/>
<path d="M0 0 C0 3.93169105 -1.39419615 5.16427228 -4 8 C-4.66 8 -5.32 8 -6 8 C-5 5 -5 5 -4 3 C-3.34 3 -2.68 3 -2 3 C-2 2.34 -2 1.68 -2 1 C-1.34 0.67 -0.68 0.34 0 0 Z " fill="#516172" transform="translate(274,367)"/>
<path d="M0 0 C2 1.125 2 1.125 4 3 C4.25 6.1875 4.25 6.1875 4 9 C3.67 8.34 3.34 7.68 3 7 C2.01 6.67 1.02 6.34 0 6 C0 4.02 0 2.04 0 0 Z " fill="#374B5E" transform="translate(336,315)"/>
<path d="M0 0 C1.32 0.66 2.64 1.32 4 2 C0.04 3.98 0.04 3.98 -4 6 C-4 5.01 -4 4.02 -4 3 C-2 1.3125 -2 1.3125 0 0 Z " fill="#616F82" transform="translate(257,255)"/>
<path d="M0 0 C2.31 0.33 4.62 0.66 7 1 C4.37801226 3.15377564 2.35595828 4.40072174 -1 5 C-0.67 3.35 -0.34 1.7 0 0 Z " fill="#4D5F76" transform="translate(293,234)"/>
<path d="M0 0 C0.66 0.33 1.32 0.66 2 1 C0.875 3 0.875 3 -1 5 C-4.1875 5.25 -4.1875 5.25 -7 5 C-2.25 1.125 -2.25 1.125 0 0 Z " fill="#4F6479" transform="translate(286,217)"/>
<path d="M0 0 C2.475 0.99 2.475 0.99 5 2 C5 2.66 5 3.32 5 4 C2.69 4.33 0.38 4.66 -2 5 C-1.125 1.125 -1.125 1.125 0 0 Z " fill="#1A3250" transform="translate(259,131)"/>
<path d="M0 0 C1.875 0.25 1.875 0.25 4 1 C5.25 3.0625 5.25 3.0625 6 5 C4.68 5 3.36 5 2 5 C2 4.34 2 3.68 2 3 C1.01 2.67 0.02 2.34 -1 2 C-0.67 1.34 -0.34 0.68 0 0 Z " fill="#172E46" transform="translate(295,355)"/>
<path d="M0 0 C0.433125 0.61875 0.86625 1.2375 1.3125 1.875 C2.99740483 4.2197245 2.99740483 4.2197245 6 6 C4.35 6.66 2.7 7.32 1 8 C0 7 0 7 -0.0625 3.4375 C-0.041875 2.303125 -0.02125 1.16875 0 0 Z " fill="#546880" transform="translate(302,345)"/>
<path d="M0 0 C0.66 0.33 1.32 0.66 2 1 C-0.46153846 5.8 -0.46153846 5.8 -3.1875 6.8125 C-3.785625 6.874375 -4.38375 6.93625 -5 7 C-3.47793991 4.37098712 -2.15634036 2.15634036 0 0 Z " fill="#546378" transform="translate(229,309)"/>
<path d="M0 0 C-5.2734375 3.22265625 -5.2734375 3.22265625 -7 4 C-7.66 3.67 -8.32 3.34 -9 3 C-8.67 2.01 -8.34 1.02 -8 0 C-5.04215769 -1.22393475 -3.00272755 -0.96516243 0 0 Z " fill="#55657B" transform="translate(292,240)"/>
<path d="M0 0 C0.33 0 0.66 0 1 0 C1 2.31 1 4.62 1 7 C-3.75 6.25 -3.75 6.25 -6 4 C-4.02 4 -2.04 4 0 4 C0 2.68 0 1.36 0 0 Z " fill="#455568" transform="translate(214,235)"/>
<path d="M0 0 C0.99 0.33 1.98 0.66 3 1 C3 1.66 3 2.32 3 3 C1 4.625 1 4.625 -1 6 C-1.99 5.01 -2.98 4.02 -4 3 C-2.68 2.67 -1.36 2.34 0 2 C0 1.34 0 0.68 0 0 Z " fill="#152D4A" transform="translate(315,202)"/>
<path d="M0 0 C0.99 0.33 1.98 0.66 3 1 C2.1875 2.9375 2.1875 2.9375 1 5 C0.01 5.33 -0.98 5.66 -2 6 C-2.99 5.34 -3.98 4.68 -5 4 C-3.35 3.34 -1.7 2.68 0 2 C0 1.34 0 0.68 0 0 Z " fill="#2B3F55" transform="translate(281,121)"/>
<path d="M0 0 C1.32 0 2.64 0 4 0 C4 2 4 2 2.625 3.5 C2.08875 3.995 1.5525 4.49 1 5 C0.34 5.66 -0.32 6.32 -1 7 C-1.04254356 5.00045254 -1.04080783 2.99958364 -1 1 C-0.67 0.67 -0.34 0.34 0 0 Z " fill="#677687" transform="translate(173,319)"/>
<path d="M0 0 C0.33 0 0.66 0 1 0 C1 2.97 1 5.94 1 9 C0.34 8.67 -0.32 8.34 -1 8 C-1.75 5.625 -1.75 5.625 -2 3 C-1.34 2.01 -0.68 1.02 0 0 Z " fill="#19314F" transform="translate(171,317)"/>
<path d="M0 0 C1.98 0.99 1.98 0.99 4 2 C2.68 2.33 1.36 2.66 0 3 C0 2.01 0 1.02 0 0 Z M-1 3 C-0.34 3.33 0.32 3.66 1 4 C0.34 5.32 -0.32 6.64 -1 8 C-1.66 7.01 -2.32 6.02 -3 5 C-2.34 5 -1.68 5 -1 5 C-1 4.34 -1 3.68 -1 3 Z " fill="#2B4762" transform="translate(198,306)"/>
<path d="M0 0 C-0.66 0 -1.32 0 -2 0 C-2 0.99 -2 1.98 -2 3 C-3.98 3 -5.96 3 -8 3 C-8 2.34 -8 1.68 -8 1 C-3.375 -1.125 -3.375 -1.125 0 0 Z " fill="#535F75" transform="translate(239,306)"/>
<path d="M0 0 C0.99 1.32 1.98 2.64 3 4 C1.02 4.66 -0.96 5.32 -3 6 C-2.67 4.68 -2.34 3.36 -2 2 C-1.34 2.33 -0.68 2.66 0 3 C0 2.01 0 1.02 0 0 Z " fill="#3F5168" transform="translate(313,223)"/>
<path d="M0 0 C0.33 1.65 0.66 3.3 1 5 C-0.65 4.67 -2.3 4.34 -4 4 C-4 3.01 -4 2.02 -4 1 C-2 0 -2 0 0 0 Z " fill="#3D4F66" transform="translate(234,208)"/>
<path d="M0 0 C1.32 0.33 2.64 0.66 4 1 C-1.17578125 4.22265625 -1.17578125 4.22265625 -3 5 C-3.99 4.67 -4.98 4.34 -6 4 C-5.34 3.34 -4.68 2.68 -4 2 C-2.68 2 -1.36 2 0 2 C0 1.34 0 0.68 0 0 Z " fill="#818B9A" transform="translate(233,192)"/>
<path d="M0 0 C-4.75 4 -4.75 4 -7 4 C-7.33 3.01 -7.66 2.02 -8 1 C-5.29120665 -0.35439668 -2.99066732 -0.06501451 0 0 Z " fill="#57667A" transform="translate(235,151)"/>
<path d="" fill="#FF00FF" transform="translate(0,0)"/>
<path d="" fill="#FFFFFF" transform="translate(0,0)"/>
<path d="" fill="#FFFFFF" transform="translate(0,0)"/>
<path d="" fill="#FFFFFF" transform="translate(0,0)"/>
<path d="" fill="#FFFFFF" transform="translate(0,0)"/>
<path d="" fill="#FFFFFF" transform="translate(0,0)"/>
<path d="" fill="#FFFFFF" transform="translate(0,0)"/>
<path d="" fill="#FFFFFF" transform="translate(0,0)"/>
<path d="" fill="#FFFFFF" transform="translate(0,0)"/>
<path d="" fill="#FFFFFF" transform="translate(0,0)"/>
<path d="" fill="#FFFFFF" transform="translate(0,0)"/>
<path d="" fill="#FFFFFF" transform="translate(0,0)"/>
<path d="" fill="#FFFFFF" transform="translate(0,0)"/>
<path d="" fill="#FFFFFF" transform="translate(0,0)"/>
<path d="" fill="#FFFFFF" transform="translate(0,0)"/>
<path d="" fill="#FFFFFF" transform="translate(0,0)"/>
<path d="" fill="#FFFFFF" transform="translate(0,0)"/>
<path d="" fill="#FFFFFF" transform="translate(0,0)"/>
<path d="" fill="#FFFFFF" transform="translate(0,0)"/>
<path d="" fill="#FFFFFF" transform="translate(0,0)"/>
<path d="" fill="#FFFFFF" transform="translate(0,0)"/>
<path d="" fill="#FFFFFF" transform="translate(0,0)"/>
<path d="" fill="#FFFFFF" transform="translate(0,0)"/>
<path d="" fill="#FFFFFF" transform="translate(0,0)"/>
<path d="" fill="#FFFFFF" transform="translate(0,0)"/>
<path d="" fill="#FFFFFF" transform="translate(0,0)"/>
<path d="" fill="#FFFFFF" transform="translate(0,0)"/>
<path d="" fill="#FFFFFF" transform="translate(0,0)"/>
<path d="" fill="#FFFFFF" transform="translate(0,0)"/>
<path d="" fill="#FFFFFF" transform="translate(0,0)"/>
<path d="" fill="#FFFFFF" transform="translate(0,0)"/>
<path d="" fill="#FFFFFF" transform="translate(0,0)"/>
<path d="" fill="#FFFFFF" transform="translate(0,0)"/>
<path d="" fill="#FFFFFF" transform="translate(0,0)"/>
<path d="" fill="#FFFFFF" transform="translate(0,0)"/>
<path d="" fill="#FFFFFF" transform="translate(0,0)"/>
<path d="" fill="#FFFFFF" transform="translate(0,0)"/>
<path d="" fill="#FFFFFF" transform="translate(0,0)"/>
<path d="" fill="#FFFFFF" transform="translate(0,0)"/>
<path d="" fill="#FFFFFF" transform="translate(0,0)"/>
<path d="" fill="#FFFFFF" transform="translate(0,0)"/>
<path d="" fill="#FFFFFF" transform="translate(0,0)"/>
<path d="" fill="#FFFFFF" transform="translate(0,0)"/>
<path d="" fill="#FFFFFF" transform="translate(0,0)"/>
<path d="" fill="#FFFFFF" transform="translate(0,0)"/>
<path d="" fill="#FFFFFF" transform="translate(0,0)"/>
<path d="" fill="#FFFFFF" transform="translate(0,0)"/>
<path d="" fill="#FFFFFF" transform="translate(0,0)"/>
<path d="" fill="#FFFFFF" transform="translate(0,0)"/>
<path d="" fill="#FFFFFF" transform="translate(0,0)"/>
<path d="" fill="#FFFFFF" transform="translate(0,0)"/>
<path d="" fill="#FFFFFF" transform="translate(0,0)"/>
<path d="" fill="#FFFFFF" transform="translate(0,0)"/>
<path d="" fill="#FFFFFF" transform="translate(0,0)"/>
<path d="" fill="#FFFFFF" transform="translate(0,0)"/>
<path d="" fill="#FFFFFF" transform="translate(0,0)"/>
<path d="" fill="#FFFFFF" transform="translate(0,0)"/>
<path d="" fill="#FFFFFF" transform="translate(0,0)"/>
<path d="" fill="#FFFFFF" transform="translate(0,0)"/>
<path d="" fill="#FFFFFF" transform="translate(0,0)"/>
<path d="" fill="#FFFFFF" transform="translate(0,0)"/>
<path d="" fill="#FFFFFF" transform="translate(0,0)"/>
<path d="" fill="#FFFFFF" transform="translate(0,0)"/>
<path d="" fill="#FFFFFF" transform="translate(0,0)"/>
<path d="" fill="#FFFFFF" transform="translate(0,0)"/>
<path d="" fill="#FFFFFF" transform="translate(0,0)"/>
<path d="" fill="#FFFFFF" transform="translate(0,0)"/>
<path d="" fill="#FFFFFF" transform="translate(0,0)"/>
<path d="" fill="#FFFFFF" transform="translate(0,0)"/>
<path d="" fill="#FFFFFF" transform="translate(0,0)"/>
<path d="" fill="#FFFFFF" transform="translate(0,0)"/>
<path d="" fill="#FFFFFF" transform="translate(0,0)"/>
<path d="" fill="#FFFFFF" transform="translate(0,0)"/>
<path d="" fill="#FFFFFF" transform="translate(0,0)"/>
<path d="" fill="#FFFFFF" transform="translate(0,0)"/>
<path d="" fill="#FFFFFF" transform="translate(0,0)"/>
</svg>
